<?xml version="1.0" encoding="UTF-8" standalone="no"?><!DOCTYPE svg PUBLIC "-//W3C//DTD SVG 1.1//EN" "http://www.w3.org/Graphics/SVG/1.1/DTD/svg11.dtd"><svg width="100%" height="100%" viewBox="0 0 4375 2867" version="1.1" xmlns="http://www.w3.org/2000/svg" xmlns:xlink="http://www.w3.org/1999/xlink" xml:space="preserve" xmlns:serif="http://www.serif.com/" style="fill-rule:evenodd;clip-rule:evenodd;stroke-linejoin:round;stroke-miterlimit:2;"><g><g><rect x="3.938" y="2718.1" width="4371.06" height="146.796" style="fill:#c1c1c1;"/><path d="M4354.52,78.923c-0,-43.559 -35.365,-78.923 -78.923,-78.923l-4169.1,0c-43.558,0 -78.922,35.364 -78.922,78.923c-0,43.559 35.364,78.923 78.922,78.923l4169.1,-0c43.558,-0 78.923,-35.364 78.923,-78.923Z" style="fill:#c1c1c1;"/><path d="M77.209,2849.11c40.439,-0 73.271,-32.832 73.271,-73.271l0,-2674.16c0,-40.439 -32.832,-73.271 -73.271,-73.271c-40.439,0 -73.271,32.832 -73.271,73.271l-0,2674.16c-0,40.439 32.832,73.271 73.271,73.271Z" style="fill:#c1c1c1;"/><path d="M4301.73,2849.11c40.439,-0 73.271,-32.832 73.271,-73.271l0,-2674.16c0,-40.439 -32.832,-73.271 -73.271,-73.271c-40.44,0 -73.271,32.832 -73.271,73.271l-0,2674.16c-0,40.439 32.831,73.271 73.271,73.271Z" style="fill:#c1c1c1;"/><path d="M7.089,89.183c0,47.479 149.031,-86.026 101.635,-86.026l-15.758,-0c-47.397,-0 -85.877,38.547 -85.877,86.026Z" style="fill:#c1c1c1;"/><path d="M4375,89.183c0,47.479 -153.265,-86.026 -104.521,-86.026l16.205,-0c48.743,-0 88.316,38.547 88.316,86.026Z" style="fill:#c1c1c1;"/></g><g><rect x="13.798" y="2710.1" width="4351.37" height="145.882" style="fill:#010101;"/><path d="M4344.78,87.351c0,-43.287 -35.144,-78.431 -78.431,-78.431l-4150.59,-0c-43.287,-0 -78.431,35.144 -78.431,78.431c0,43.288 35.144,78.432 78.431,78.432l4150.59,-0c43.287,-0 78.431,-35.144 78.431,-78.432Z" style="fill:#010101;"/><path d="M86.739,2840.29c40.257,0 72.941,-32.683 72.941,-72.941l-0,-2657.26c-0,-40.257 -32.684,-72.941 -72.941,-72.941c-40.258,0 -72.941,32.684 -72.941,72.941l-0,2657.26c-0,40.258 32.683,72.941 72.941,72.941Z" style="fill:#010101;"/><path d="M4292.23,2840.29c40.257,0 72.941,-32.683 72.941,-72.941l0,-2657.26c0,-40.257 -32.684,-72.941 -72.941,-72.941c-40.257,0 -72.941,32.684 -72.941,72.941l-0,2657.26c-0,40.258 32.684,72.941 72.941,72.941Z" style="fill:#010101;"/><path d="M16.935,97.547c-0,47.184 148.36,-85.49 101.176,-85.49l-15.686,0c-47.183,0 -85.49,38.307 -85.49,85.49Z" style="fill:#010101;"/><path d="M4365.17,97.547c0,47.184 -152.574,-85.49 -104.05,-85.49l16.132,0c48.523,0 87.918,38.307 87.918,85.49Z" style="fill:#010101;"/></g></g></svg>