<?xml version="1.0" encoding="UTF-8" standalone="no"?><!DOCTYPE svg PUBLIC "-//W3C//DTD SVG 1.1//EN" "http://www.w3.org/Graphics/SVG/1.1/DTD/svg11.dtd"><svg width="100%" height="100%" viewBox="0 0 767 409" version="1.1" xmlns="http://www.w3.org/2000/svg" xmlns:xlink="http://www.w3.org/1999/xlink" xml:space="preserve" xmlns:serif="http://www.serif.com/" style="fill-rule:evenodd;clip-rule:evenodd;stroke-linejoin:round;stroke-miterlimit:2;"><g><g><path d="M289.583,383.333c0,12.648 10.269,22.917 22.917,22.917l429.167,0c12.648,0 22.916,-10.269 22.916,-22.917c0,-12.648 -10.268,-22.916 -22.916,-22.916l-429.167,-0c-12.648,-0 -22.917,10.268 -22.917,22.916Z" style="fill:#fff;"/><path d="M2.083,383.333c0,12.648 10.269,22.917 22.917,22.917l170.833,0c12.648,0 22.917,-10.269 22.917,-22.917c0,-12.648 -10.269,-22.916 -22.917,-22.916l-170.833,-0c-12.648,-0 -22.917,10.268 -22.917,22.916Z" style="fill:#fff;"/></g><g><path d="M510.417,262.5c-0,12.648 10.268,22.917 22.916,22.917l208.334,-0c12.648,-0 22.916,-10.269 22.916,-22.917c0,-12.648 -10.268,-22.917 -22.916,-22.917l-208.334,0c-12.648,0 -22.916,10.269 -22.916,22.917Z" style="fill:#fff;"/><path d="M110.417,262.5c-0,12.648 10.268,22.917 22.916,22.917l316.667,-0c12.648,-0 22.917,-10.269 22.917,-22.917c-0,-12.648 -10.269,-22.917 -22.917,-22.917l-316.667,0c-12.648,0 -22.916,10.269 -22.916,22.917Z" style="fill:#fff;"/><path d="M2.083,262.5c0,12.648 10.269,22.917 22.917,22.917l25.683,-0c12.648,-0 22.917,-10.269 22.917,-22.917c-0,-12.648 -10.269,-22.917 -22.917,-22.917l-25.683,0c-12.648,0 -22.917,10.269 -22.917,22.917Z" style="fill:#fff;"/></g><g><path d="M627.083,137.5c0,12.648 10.269,22.917 22.917,22.917l91.667,-0c12.648,-0 22.916,-10.269 22.916,-22.917c0,-12.648 -10.268,-22.917 -22.916,-22.917l-91.667,0c-12.648,0 -22.917,10.269 -22.917,22.917Z" style="fill:#fff;"/><path d="M2.083,137.5c0,12.648 10.269,22.917 22.917,22.917l541.667,-0c12.648,-0 22.916,-10.269 22.916,-22.917c0,-12.648 -10.268,-22.917 -22.916,-22.917l-541.667,0c-12.648,0 -22.917,10.269 -22.917,22.917Z" style="fill:#fff;"/></g><g><path d="M331.25,25c0,12.648 10.269,22.917 22.917,22.917l387.5,-0c12.648,-0 22.916,-10.269 22.916,-22.917c0,-12.648 -10.268,-22.917 -22.916,-22.917l-387.5,0c-12.648,0 -22.917,10.269 -22.917,22.917Z" style="fill:#fff;"/><path d="M2.083,25c0,12.648 10.269,22.917 22.917,22.917l233.333,-0c12.648,-0 22.917,-10.269 22.917,-22.917c0,-12.648 -10.269,-22.917 -22.917,-22.917l-233.333,0c-12.648,0 -22.917,10.269 -22.917,22.917Z" style="fill:#fff;"/></g></g></svg>