<?xml version="1.0" encoding="UTF-8" standalone="no"?><!DOCTYPE svg PUBLIC "-//W3C//DTD SVG 1.1//EN" "http://www.w3.org/Graphics/SVG/1.1/DTD/svg11.dtd"><svg width="100%" height="100%" viewBox="0 0 755 213" version="1.1" xmlns="http://www.w3.org/2000/svg" xmlns:xlink="http://www.w3.org/1999/xlink" xml:space="preserve" xmlns:serif="http://www.serif.com/" style="fill-rule:evenodd;clip-rule:evenodd;stroke-linejoin:round;stroke-miterlimit:2;"><g><g><path d="M264.583,187.5c0,-13.798 -11.202,-25 -25,-25l-212.5,-0c-13.798,-0 -25,11.202 -25,25c0,13.798 11.202,25 25,25l212.5,-0c13.798,-0 25,-11.202 25,-25Z" style="fill:#fff;"/><path d="M422.917,187.5c-0,-13.798 -11.202,-25 -25,-25l-70.834,-0c-13.798,-0 -25,11.202 -25,25c0,13.798 11.202,25 25,25l70.834,-0c13.798,-0 25,-11.202 25,-25Z" style="fill:#fff;"/></g><path d="M752.083,56.25c0,-31.045 -25.204,-56.25 -56.25,-56.25l-637.5,0c-31.045,0 -56.25,25.205 -56.25,56.25c0,31.045 25.205,56.25 56.25,56.25l637.5,0c31.046,0 56.25,-25.205 56.25,-56.25Z" style="fill:#fff;"/></g></svg>