<?xml version="1.0" encoding="UTF-8" standalone="no"?><!DOCTYPE svg PUBLIC "-//W3C//DTD SVG 1.1//EN" "http://www.w3.org/Graphics/SVG/1.1/DTD/svg11.dtd"><svg width="100%" height="100%" viewBox="0 0 438 55" version="1.1" xmlns="http://www.w3.org/2000/svg" xmlns:xlink="http://www.w3.org/1999/xlink" xml:space="preserve" xmlns:serif="http://www.serif.com/" style="fill-rule:evenodd;clip-rule:evenodd;stroke-linejoin:round;stroke-miterlimit:2;"><g><path d="M127.083,27.083c0,-13.223 -10.735,-23.958 -23.958,-23.958l-77.083,0c-13.223,0 -23.959,10.735 -23.959,23.958c0,13.223 10.736,23.959 23.959,23.959l77.083,-0c13.223,-0 23.958,-10.736 23.958,-23.959Z" style="fill:#fff;"/><path d="M435.417,27.083c-0,-13.223 -10.736,-23.958 -23.959,-23.958l-222.916,0c-13.223,0 -23.959,10.735 -23.959,23.958c0,13.223 10.736,23.959 23.959,23.959l222.916,-0c13.223,-0 23.959,-10.736 23.959,-23.959Z" style="fill:#fff;"/></g></svg>