<?xml version="1.0" encoding="UTF-8" standalone="no"?>
<!DOCTYPE svg PUBLIC "-//W3C//DTD SVG 1.1//EN" "http://www.w3.org/Graphics/SVG/1.1/DTD/svg11.dtd">
<svg width="100%" height="100%" viewBox="0 0 200 200" version="1.1" xmlns="http://www.w3.org/2000/svg" xmlns:xlink="http://www.w3.org/1999/xlink" xml:space="preserve" xmlns:serif="http://www.serif.com/" style="fill-rule:evenodd;clip-rule:evenodd;stroke-linejoin:round;stroke-miterlimit:2;">
    <g id="HTML" transform="matrix(1.11111,0,0,1.11111,-923.889,-561.111)">
        <path d="M1001,505L842,505L856,667L921.5,685L987,667L1000.79,505.401L1001,505Z" style="fill:rgb(151,84,203);"/>
        <g transform="matrix(1,0,0,1,0,6)">
            <path d="M971,538L871,538L876.699,599.272L896.555,598.722L945.835,598.648L943.712,624.647L921.5,630.756L899.296,624.262L897.826,608.741L877.811,608.3L879.539,639.408L920.739,651.339L962.809,640.116L966.197,598.618L967.644,578.895L895.31,578.465L893,558L970,558L971,538Z" style="fill:rgb(17,18,24);"/>
        </g>
        <g transform="matrix(0.241148,0,0,0.241148,688.157,360.784)">
            <text x="786.619px" y="702.092px" style="font-family:'Poppins-Bold', 'Poppins';font-weight:700;font-size:131.217px;fill:rgb(17,18,24);">HTML</text>
        </g>
    </g>
</svg>
