<?xml version="1.0" encoding="UTF-8" standalone="no"?>
<!DOCTYPE svg PUBLIC "-//W3C//DTD SVG 1.1//EN" "http://www.w3.org/Graphics/SVG/1.1/DTD/svg11.dtd">
<svg width="100%" height="100%" viewBox="0 0 200 200" version="1.1" xmlns="http://www.w3.org/2000/svg" xmlns:xlink="http://www.w3.org/1999/xlink" xml:space="preserve" xmlns:serif="http://www.serif.com/" style="fill-rule:evenodd;clip-rule:evenodd;stroke-linejoin:round;stroke-miterlimit:2;">
    <g id="Node-JS" serif:id="Node JS" transform="matrix(0.35304,0,0,0.35304,-313.488,-179.605)">
        <g>
            <path d="M927,820L948.834,807.507L948.075,761.715L887.967,798L888.967,886L927,864L927,820Z" style="fill:rgb(151,84,203);"/>
            <g transform="matrix(-1.01664,0,0,1,1910.92,0)">
                <path d="M927,820L947.834,807.507L948.075,761.715L887.967,798L888.967,886L927,864L927,820Z" style="fill:rgb(151,84,203);"/>
            </g>
        </g>
        <g>
            <g transform="matrix(0.707107,0.707107,-0.707107,0.707107,911.945,-500.21)">
                <path d="M1139.34,792.776L1091.25,744.693L1022.82,761.816L1005.69,830.253L1053.78,878.336L1122,861L1139.34,792.776Z" style="fill:rgb(151,84,203);"/>
            </g>
            <g transform="matrix(1.28723,0,0,0.723404,-298.862,221.447)">
                <rect x="1037" y="797" width="94" height="94" style="fill:rgb(151,84,203);"/>
            </g>
        </g>
        <g>
            <g transform="matrix(0.707107,0.707107,-0.707107,0.707107,911.945,-500.21)">
                <path d="M1139.34,792.776L1091.25,744.693L1022.82,761.816L1005.69,830.253L1053.78,878.336L1122,861L1139.34,792.776Z" style="fill:rgb(151,84,203);"/>
            </g>
            <g transform="matrix(1.28723,0,0,0.723404,-298.862,221.447)">
                <rect x="1037" y="797" width="94" height="94" style="fill:rgb(151,84,203);"/>
            </g>
        </g>
        <g transform="matrix(0.222222,0,0,0.222222,1150.2,646.994)">
            <g transform="matrix(0.707107,0.707107,-0.707107,0.707107,911.945,-500.21)">
                <path d="M1139.34,792.776L1091.25,744.693L1022.82,761.816L1005.69,830.253L1053.78,878.336L1122,861L1139.34,792.776Z" style="fill:rgb(151,84,203);"/>
            </g>
            <g transform="matrix(1.28723,0,0,0.723404,-298.862,221.447)">
                <rect x="1037" y="797" width="94" height="94" style="fill:rgb(151,84,203);"/>
            </g>
        </g>
        <g>
            <g transform="matrix(1,0,0,1,148,0)">
                <g transform="matrix(0.707107,0.707107,-0.707107,0.707107,911.945,-500.21)">
                    <path d="M1139.34,792.776L1091.25,744.693L1022.82,761.816L1005.69,830.253L1053.78,878.336L1122,861L1139.34,792.776Z" style="fill:rgb(151,84,203);"/>
                </g>
                <g transform="matrix(1.28723,0,0,0.723404,-298.862,221.447)">
                    <rect x="1037" y="797" width="94" height="94" style="fill:rgb(151,84,203);"/>
                </g>
            </g>
            <g transform="matrix(0.359788,0,0,0.359788,849.992,532.656)">
                <g transform="matrix(0.707107,0.707107,-0.707107,0.707107,911.945,-500.21)">
                    <path d="M1139.34,792.776L1091.25,744.693L1022.82,761.816L1005.69,830.253L1053.78,878.336L1122,861L1139.34,792.776Z" style="fill:rgb(17,18,24);"/>
                </g>
                <g transform="matrix(1.28723,0,0,0.723404,-298.862,221.447)">
                    <rect x="1037" y="797" width="94" height="94" style="fill:rgb(17,18,24);"/>
                </g>
            </g>
            <path d="M1305,805L1264.27,775.208L1265.27,682L1305,705L1305,805Z" style="fill:rgb(151,84,203);"/>
        </g>
        <path d="M1414,841L1454.47,817L1454.23,798L1393.99,761.715L1334,798L1333.26,865.272L1393.05,900.801L1431.78,877.638L1373.08,843.3L1372.74,819.211L1394,807L1414,820L1414,841Z" style="fill:rgb(151,84,203);"/>
    </g>
</svg>
