<?xml version="1.0" encoding="UTF-8" standalone="no"?>
<!DOCTYPE svg PUBLIC "-//W3C//DTD SVG 1.1//EN" "http://www.w3.org/Graphics/SVG/1.1/DTD/svg11.dtd">
<svg width="100%" height="100%" viewBox="0 0 1000 1000" version="1.1" xmlns="http://www.w3.org/2000/svg" xmlns:xlink="http://www.w3.org/1999/xlink" xml:space="preserve" xmlns:serif="http://www.serif.com/" style="fill-rule:evenodd;clip-rule:evenodd;stroke-linejoin:round;stroke-miterlimit:2;">
    <rect x="636" y="0" width="364" height="1000" style="fill:white;"/>
    <g>
        <path d="M1000,250C1000,112.021 887.979,0 750,0L250,0C112.021,0 0,112.021 0,250L0,750C0,887.979 112.021,1000 250,1000L750,1000C887.979,1000 1000,887.979 1000,750L1000,250Z" style="fill:white;"/>
    </g>
    <g transform="matrix(1,0,0,1,0,-34.4444)">
        <rect x="205.111" y="313" width="589.778" height="442.889" style="fill:none;"/>
        <g id="mail.svg" transform="matrix(18.4306,0,0,18.4306,500,461)">
            <g transform="matrix(1,0,0,1,-16,-16)">
                <path d="M30,8L2,8C0.903,8 -0,8.903 0,10L0,30C0,31.097 0.903,32 2,32L30,32C31.097,32 32,31.097 32,30L32,10C32,8.903 31.097,8 30,8ZM11.36,22.054L16.004,25.21L20.62,22.032L28.586,30L3.414,30L11.36,22.054ZM2,28.586L2,15.69L9.676,20.908L2,28.586ZM22.294,20.88L30,15.576L30,28.586L22.294,20.88ZM30,10L30,13.236L29.958,13.176L15.996,22.79L2,13.274L2,10L30,10Z" style="fill-rule:nonzero;"/>
            </g>
        </g>
    </g>
</svg>
