<?xml version="1.0" encoding="UTF-8" standalone="no"?>
<!DOCTYPE svg PUBLIC "-//W3C//DTD SVG 1.1//EN" "http://www.w3.org/Graphics/SVG/1.1/DTD/svg11.dtd">
<svg width="100%" height="100%" viewBox="0 0 40 40" version="1.1" xmlns="http://www.w3.org/2000/svg" xmlns:xlink="http://www.w3.org/1999/xlink" xml:space="preserve" xmlns:serif="http://www.serif.com/" style="fill-rule:evenodd;clip-rule:evenodd;stroke-linejoin:round;stroke-miterlimit:2;">
    <g transform="matrix(0.04,0,0,0.04,0,0)">
        <path d="M1000,250C1000,112.021 887.979,0 750,0L250,0C112.021,0 0,112.021 0,250L0,750C0,887.979 112.021,1000 250,1000L750,1000C887.979,1000 1000,887.979 1000,750L1000,250Z" style="fill:white;"/>
        <g>
            <g transform="matrix(1,0,0,1,0,24.25)">
                <g>
                    <g transform="matrix(1.00347,0,0,1.00347,-42.3735,-0.227903)">
                        <path d="M829,354.25C829,274.636 764.364,210 684.75,210L396.25,210C316.636,210 252,274.636 252,354.25L252,642.75C252,722.364 316.636,787 396.25,787L684.75,787C764.364,787 829,722.364 829,642.75L829,354.25Z"/>
                    </g>
                    <g transform="matrix(0.747745,0,0,0.747745,95.8437,127.249)">
                        <path d="M829,330.995C829,264.216 774.784,210 708.005,210L372.995,210C306.216,210 252,264.216 252,330.995L252,666.005C252,732.784 306.216,787 372.995,787L708.005,787C774.784,787 829,732.784 829,666.005L829,330.995Z" style="fill:white;"/>
                    </g>
                </g>
                <g transform="matrix(1,0,0,1,-10.5,0)">
                    <path d="M645,204.75C645,181.156 625.844,162 602.25,162L418.75,162C395.156,162 376,181.156 376,204.75L376,290.25C376,313.844 395.156,333 418.75,333L602.25,333C625.844,333 645,313.844 645,290.25L645,204.75Z" style="fill:white;"/>
                </g>
                <g>
                    <g transform="matrix(-1,1.22465e-16,-1.22465e-16,-1,766.776,494.776)">
                        <path d="M402.388,210.5C382.029,210.5 365.5,227.029 365.5,247.388C365.5,267.747 382.029,284.276 402.388,284.276L402.388,210.5Z"/>
                    </g>
                    <g transform="matrix(1,-2.44929e-16,2.44929e-16,1,233.112,5.68434e-14)">
                        <path d="M402.388,210.5C382.029,210.5 365.5,227.029 365.5,247.388C365.5,267.747 382.029,284.276 402.388,284.276L402.388,210.5Z"/>
                    </g>
                </g>
            </g>
            <g>
                <g transform="matrix(8.60572e-17,1.40542,-1.08133,6.62122e-17,767.507,-396.658)">
                    <path d="M638,247.388C638,227.029 625.283,210.5 609.619,210.5L387.381,210.5C371.717,210.5 359,227.029 359,247.388C359,267.747 371.717,284.276 387.381,284.276L609.619,284.276C625.283,284.276 638,267.747 638,247.388Z"/>
                </g>
                <g transform="matrix(1,0,0,1,-5.90269,0)">
                    <g transform="matrix(-0.365698,0.365698,-0.764614,-0.764614,854.655,177.433)">
                        <path d="M638,247.388C638,227.029 603.441,210.5 560.874,210.5L436.126,210.5C393.559,210.5 359,227.029 359,247.388C359,267.747 393.559,284.276 436.126,284.276L560.874,284.276C603.441,284.276 638,267.747 638,247.388Z"/>
                    </g>
                    <g transform="matrix(-0.365698,-0.365698,0.764614,-0.764614,521.752,542.035)">
                        <path d="M638,247.388C638,227.029 603.441,210.5 560.874,210.5L436.126,210.5C393.559,210.5 359,227.029 359,247.388C359,267.747 393.559,284.276 436.126,284.276L560.874,284.276C603.441,284.276 638,267.747 638,247.388Z"/>
                    </g>
                    <g transform="matrix(-0.61215,1.78164e-16,-2.38502e-16,-1.08133,811.059,460.887)">
                        <path d="M638,247.388C638,227.029 608.803,210.5 572.84,210.5L424.16,210.5C388.197,210.5 359,227.029 359,247.388C359,267.747 388.197,284.276 424.16,284.276L572.84,284.276C608.803,284.276 638,267.747 638,247.388Z"/>
                    </g>
                </g>
            </g>
        </g>
    </g>
</svg>
