<?xml version="1.0" encoding="UTF-8" standalone="no"?>
<!DOCTYPE svg PUBLIC "-//W3C//DTD SVG 1.1//EN" "http://www.w3.org/Graphics/SVG/1.1/DTD/svg11.dtd">
<svg width="100%" height="100%" viewBox="0 0 974 50" version="1.1" xmlns="http://www.w3.org/2000/svg" xmlns:xlink="http://www.w3.org/1999/xlink" xml:space="preserve" xmlns:serif="http://www.serif.com/" style="fill-rule:evenodd;clip-rule:evenodd;stroke-linejoin:round;stroke-miterlimit:2;">
    <g transform="matrix(1,0,0,1,0.00168955,0.0169352)">
        <g transform="matrix(10.0149,0,0,6.00169,-2166.31,-2603.56)">
            <g transform="matrix(12,0,0,12,214.791,441.913)">
                <path d="M1.255,-0.57C1.255,-0.546 1.249,-0.525 1.238,-0.507C1.227,-0.49 1.212,-0.476 1.196,-0.468C1.179,-0.459 1.162,-0.454 1.146,-0.454C1.131,-0.454 1.116,-0.458 1.103,-0.466C1.089,-0.473 1.08,-0.482 1.076,-0.492L0.833,-0.086C0.814,-0.055 0.798,-0.033 0.783,-0.02C0.768,-0.007 0.75,-0 0.731,-0C0.686,-0 0.661,-0.029 0.655,-0.086L0.623,-0.38L0.421,-0.086C0.398,-0.052 0.379,-0.029 0.365,-0.018C0.35,-0.006 0.334,-0 0.315,-0C0.274,-0 0.25,-0.032 0.241,-0.096L0.177,-0.548C0.175,-0.561 0.171,-0.572 0.166,-0.58C0.16,-0.588 0.153,-0.596 0.144,-0.603C0.138,-0.608 0.134,-0.613 0.131,-0.617C0.128,-0.62 0.127,-0.624 0.127,-0.629C0.124,-0.654 0.138,-0.666 0.171,-0.666L0.42,-0.666C0.435,-0.666 0.447,-0.663 0.455,-0.657C0.462,-0.65 0.466,-0.642 0.465,-0.631C0.465,-0.626 0.464,-0.621 0.461,-0.616C0.458,-0.611 0.454,-0.606 0.451,-0.602C0.444,-0.594 0.438,-0.586 0.435,-0.579C0.432,-0.572 0.431,-0.562 0.432,-0.55L0.458,-0.309L0.608,-0.524L0.605,-0.548C0.604,-0.561 0.6,-0.571 0.595,-0.579C0.59,-0.587 0.582,-0.595 0.573,-0.602C0.566,-0.608 0.562,-0.613 0.559,-0.617C0.556,-0.62 0.555,-0.624 0.555,-0.629C0.552,-0.654 0.566,-0.666 0.599,-0.666L0.849,-0.666C0.864,-0.666 0.876,-0.663 0.884,-0.657C0.892,-0.65 0.896,-0.642 0.895,-0.631C0.895,-0.622 0.89,-0.613 0.881,-0.602C0.874,-0.594 0.869,-0.586 0.866,-0.579C0.863,-0.572 0.861,-0.562 0.862,-0.55L0.874,-0.332L1.009,-0.568C1.031,-0.606 1.052,-0.632 1.073,-0.648C1.094,-0.663 1.121,-0.67 1.154,-0.67C1.184,-0.67 1.208,-0.661 1.227,-0.643C1.246,-0.625 1.255,-0.601 1.255,-0.57Z" style="fill:white;fill-rule:nonzero;"/>
            </g>
            <g transform="matrix(12,0,0,12,228.639,441.913)">
                <path d="M0.653,-0.666C0.678,-0.666 0.697,-0.661 0.711,-0.65C0.724,-0.639 0.731,-0.625 0.731,-0.606C0.731,-0.597 0.73,-0.588 0.727,-0.579L0.701,-0.486C0.696,-0.468 0.69,-0.456 0.681,-0.449C0.672,-0.442 0.659,-0.438 0.642,-0.438C0.626,-0.438 0.614,-0.442 0.605,-0.449C0.596,-0.456 0.589,-0.467 0.584,-0.483L0.568,-0.54C0.565,-0.552 0.561,-0.56 0.556,-0.564C0.551,-0.568 0.542,-0.57 0.529,-0.57L0.424,-0.57L0.374,-0.392L0.418,-0.392C0.423,-0.392 0.429,-0.395 0.437,-0.402L0.471,-0.432C0.481,-0.441 0.49,-0.447 0.497,-0.451C0.504,-0.455 0.513,-0.457 0.524,-0.457C0.536,-0.457 0.546,-0.454 0.554,-0.448C0.561,-0.441 0.565,-0.433 0.565,-0.423C0.565,-0.42 0.564,-0.416 0.563,-0.411L0.522,-0.272C0.518,-0.257 0.511,-0.247 0.501,-0.239C0.492,-0.233 0.481,-0.229 0.47,-0.229C0.451,-0.229 0.437,-0.239 0.428,-0.258L0.411,-0.293C0.406,-0.303 0.399,-0.308 0.389,-0.308L0.35,-0.308L0.291,-0.096L0.379,-0.096C0.392,-0.096 0.403,-0.099 0.412,-0.103C0.422,-0.109 0.433,-0.117 0.444,-0.13L0.504,-0.196C0.515,-0.207 0.525,-0.216 0.535,-0.221C0.544,-0.226 0.556,-0.228 0.57,-0.228C0.585,-0.228 0.597,-0.225 0.606,-0.218C0.615,-0.211 0.62,-0.201 0.62,-0.188C0.62,-0.183 0.619,-0.176 0.617,-0.169L0.588,-0.068C0.581,-0.043 0.57,-0.025 0.556,-0.015C0.542,-0.005 0.522,-0 0.495,-0L0.018,-0C0.004,-0 -0.007,-0.002 -0.014,-0.007C-0.022,-0.012 -0.026,-0.018 -0.026,-0.026C-0.026,-0.03 -0.025,-0.034 -0.023,-0.039C-0.02,-0.046 -0.016,-0.052 -0.01,-0.056C-0.004,-0.06 -0,-0.062 0.001,-0.063C0.012,-0.07 0.02,-0.077 0.027,-0.084C0.034,-0.091 0.039,-0.102 0.044,-0.118L0.167,-0.549C0.17,-0.558 0.171,-0.566 0.171,-0.573C0.171,-0.581 0.17,-0.588 0.168,-0.593C0.165,-0.598 0.162,-0.604 0.157,-0.61C0.151,-0.619 0.148,-0.626 0.148,-0.631C0.148,-0.633 0.149,-0.637 0.15,-0.642C0.153,-0.651 0.159,-0.657 0.168,-0.661C0.177,-0.664 0.191,-0.666 0.209,-0.666L0.653,-0.666Z" style="fill:white;fill-rule:nonzero;"/>
            </g>
            <g transform="matrix(12,0,0,12,236.571,441.913)">
                <path d="M0.567,-0.666C0.612,-0.666 0.652,-0.659 0.686,-0.646C0.719,-0.632 0.745,-0.613 0.762,-0.59C0.78,-0.566 0.789,-0.539 0.789,-0.508C0.789,-0.491 0.787,-0.475 0.782,-0.46C0.763,-0.393 0.707,-0.35 0.615,-0.332C0.647,-0.323 0.672,-0.307 0.691,-0.285C0.71,-0.264 0.719,-0.237 0.719,-0.205C0.719,-0.19 0.716,-0.173 0.711,-0.153C0.696,-0.101 0.667,-0.063 0.623,-0.038C0.578,-0.013 0.515,-0 0.434,-0L0.018,-0C0.004,-0 -0.007,-0.002 -0.014,-0.007C-0.022,-0.012 -0.026,-0.018 -0.026,-0.026C-0.026,-0.03 -0.025,-0.034 -0.023,-0.039C-0.02,-0.046 -0.016,-0.052 -0.01,-0.056C-0.004,-0.06 -0,-0.062 0.001,-0.063C0.012,-0.07 0.02,-0.077 0.027,-0.084C0.034,-0.091 0.039,-0.102 0.044,-0.118L0.166,-0.549C0.169,-0.558 0.17,-0.566 0.17,-0.574C0.17,-0.581 0.169,-0.588 0.167,-0.593C0.164,-0.598 0.161,-0.603 0.157,-0.61C0.151,-0.619 0.148,-0.626 0.148,-0.631C0.148,-0.633 0.149,-0.637 0.15,-0.642C0.153,-0.651 0.159,-0.657 0.168,-0.661C0.177,-0.664 0.19,-0.666 0.209,-0.666L0.567,-0.666ZM0.522,-0.483C0.527,-0.498 0.529,-0.511 0.529,-0.524C0.529,-0.559 0.509,-0.576 0.47,-0.576L0.425,-0.576L0.372,-0.389L0.416,-0.389C0.444,-0.389 0.466,-0.396 0.483,-0.409C0.499,-0.423 0.512,-0.448 0.522,-0.483ZM0.449,-0.189C0.454,-0.205 0.456,-0.22 0.456,-0.233C0.456,-0.269 0.435,-0.287 0.394,-0.287L0.344,-0.287L0.287,-0.09L0.338,-0.09C0.367,-0.09 0.39,-0.097 0.407,-0.112C0.424,-0.126 0.438,-0.152 0.449,-0.189Z" style="fill:white;fill-rule:nonzero;"/>
            </g>
            <g transform="matrix(12,0,0,12,248.103,441.913)">
                <path d="M0.479,-0.666C0.579,-0.666 0.654,-0.647 0.705,-0.609C0.756,-0.57 0.781,-0.514 0.781,-0.44C0.781,-0.403 0.774,-0.361 0.761,-0.313C0.739,-0.236 0.709,-0.174 0.672,-0.129C0.635,-0.084 0.586,-0.051 0.525,-0.03C0.464,-0.009 0.385,0.001 0.29,-0L0.018,-0.001C0.004,-0.001 -0.007,-0.003 -0.014,-0.008C-0.022,-0.013 -0.026,-0.019 -0.026,-0.027C-0.026,-0.031 -0.025,-0.035 -0.023,-0.04C-0.021,-0.046 -0.018,-0.05 -0.014,-0.053C-0.011,-0.056 -0.005,-0.059 0.002,-0.064C0.013,-0.07 0.021,-0.077 0.028,-0.084C0.034,-0.091 0.039,-0.103 0.044,-0.119L0.166,-0.549C0.169,-0.558 0.17,-0.566 0.17,-0.574C0.17,-0.581 0.169,-0.588 0.167,-0.593C0.164,-0.598 0.161,-0.603 0.157,-0.61C0.151,-0.619 0.148,-0.626 0.148,-0.631C0.148,-0.633 0.149,-0.637 0.15,-0.642C0.153,-0.651 0.159,-0.657 0.168,-0.661C0.177,-0.664 0.19,-0.666 0.209,-0.666L0.479,-0.666ZM0.505,-0.335C0.522,-0.398 0.531,-0.447 0.531,-0.483C0.531,-0.518 0.524,-0.543 0.509,-0.556C0.494,-0.569 0.473,-0.576 0.446,-0.576L0.424,-0.576L0.289,-0.09L0.313,-0.09C0.344,-0.09 0.37,-0.097 0.391,-0.11C0.411,-0.123 0.431,-0.147 0.449,-0.182C0.467,-0.217 0.486,-0.268 0.505,-0.335Z" style="fill:white;fill-rule:nonzero;"/>
            </g>
            <g transform="matrix(12,0,0,12,257.127,441.913)">
                <path d="M0.653,-0.666C0.678,-0.666 0.697,-0.661 0.711,-0.65C0.724,-0.639 0.731,-0.625 0.731,-0.606C0.731,-0.597 0.73,-0.588 0.727,-0.579L0.701,-0.486C0.696,-0.468 0.69,-0.456 0.681,-0.449C0.672,-0.442 0.659,-0.438 0.642,-0.438C0.626,-0.438 0.614,-0.442 0.605,-0.449C0.596,-0.456 0.589,-0.467 0.584,-0.483L0.568,-0.54C0.565,-0.552 0.561,-0.56 0.556,-0.564C0.551,-0.568 0.542,-0.57 0.529,-0.57L0.424,-0.57L0.374,-0.392L0.418,-0.392C0.423,-0.392 0.429,-0.395 0.437,-0.402L0.471,-0.432C0.481,-0.441 0.49,-0.447 0.497,-0.451C0.504,-0.455 0.513,-0.457 0.524,-0.457C0.536,-0.457 0.546,-0.454 0.554,-0.448C0.561,-0.441 0.565,-0.433 0.565,-0.423C0.565,-0.42 0.564,-0.416 0.563,-0.411L0.522,-0.272C0.518,-0.257 0.511,-0.247 0.501,-0.239C0.492,-0.233 0.481,-0.229 0.47,-0.229C0.451,-0.229 0.437,-0.239 0.428,-0.258L0.411,-0.293C0.406,-0.303 0.399,-0.308 0.389,-0.308L0.35,-0.308L0.291,-0.096L0.379,-0.096C0.392,-0.096 0.403,-0.099 0.412,-0.103C0.422,-0.109 0.433,-0.117 0.444,-0.13L0.504,-0.196C0.515,-0.207 0.525,-0.216 0.535,-0.221C0.544,-0.226 0.556,-0.228 0.57,-0.228C0.585,-0.228 0.597,-0.225 0.606,-0.218C0.615,-0.211 0.62,-0.201 0.62,-0.188C0.62,-0.183 0.619,-0.176 0.617,-0.169L0.588,-0.068C0.581,-0.043 0.57,-0.025 0.556,-0.015C0.542,-0.005 0.522,-0 0.495,-0L0.018,-0C0.004,-0 -0.007,-0.002 -0.014,-0.007C-0.022,-0.012 -0.026,-0.018 -0.026,-0.026C-0.026,-0.03 -0.025,-0.034 -0.023,-0.039C-0.02,-0.046 -0.016,-0.052 -0.01,-0.056C-0.004,-0.06 -0,-0.062 0.001,-0.063C0.012,-0.07 0.02,-0.077 0.027,-0.084C0.034,-0.091 0.039,-0.102 0.044,-0.118L0.167,-0.549C0.17,-0.558 0.171,-0.566 0.171,-0.573C0.171,-0.581 0.17,-0.588 0.168,-0.593C0.165,-0.598 0.162,-0.604 0.157,-0.61C0.151,-0.619 0.148,-0.626 0.148,-0.631C0.148,-0.633 0.149,-0.637 0.15,-0.642C0.153,-0.651 0.159,-0.657 0.168,-0.661C0.177,-0.664 0.191,-0.666 0.209,-0.666L0.653,-0.666Z" style="fill:white;fill-rule:nonzero;"/>
            </g>
            <g transform="matrix(12,0,0,12,265.179,441.913)">
                <path d="M0.374,-0.672C0.411,-0.672 0.446,-0.668 0.477,-0.659C0.509,-0.65 0.541,-0.635 0.574,-0.616L0.597,-0.635C0.613,-0.648 0.626,-0.656 0.636,-0.661C0.647,-0.666 0.659,-0.668 0.672,-0.668C0.688,-0.668 0.701,-0.665 0.71,-0.658C0.719,-0.651 0.724,-0.64 0.724,-0.627C0.724,-0.622 0.723,-0.616 0.721,-0.61L0.679,-0.472C0.674,-0.456 0.669,-0.445 0.662,-0.438C0.655,-0.431 0.644,-0.428 0.63,-0.428C0.615,-0.428 0.603,-0.433 0.592,-0.442C0.581,-0.451 0.563,-0.469 0.54,-0.497C0.517,-0.524 0.496,-0.543 0.476,-0.554C0.458,-0.565 0.438,-0.57 0.418,-0.57C0.403,-0.57 0.391,-0.565 0.381,-0.556C0.371,-0.546 0.366,-0.534 0.366,-0.52C0.366,-0.504 0.374,-0.489 0.39,-0.475C0.406,-0.462 0.431,-0.445 0.465,-0.424C0.5,-0.403 0.528,-0.385 0.551,-0.368C0.574,-0.351 0.593,-0.331 0.609,-0.306C0.625,-0.281 0.633,-0.253 0.633,-0.221C0.633,-0.2 0.63,-0.18 0.623,-0.159C0.607,-0.106 0.576,-0.065 0.53,-0.038C0.484,-0.01 0.43,0.004 0.369,0.004C0.323,0.004 0.284,-0.001 0.253,-0.012C0.222,-0.023 0.19,-0.041 0.157,-0.066L0.121,-0.036C0.104,-0.022 0.091,-0.013 0.08,-0.008C0.069,-0.003 0.057,-0 0.044,-0C0.029,-0 0.017,-0.004 0.008,-0.011C-0.001,-0.018 -0.006,-0.028 -0.006,-0.041C-0.006,-0.048 -0.005,-0.055 -0.002,-0.062L0.047,-0.211C0.052,-0.228 0.06,-0.241 0.069,-0.248C0.078,-0.255 0.09,-0.259 0.105,-0.259C0.12,-0.259 0.134,-0.254 0.147,-0.243C0.159,-0.232 0.175,-0.213 0.195,-0.185C0.216,-0.154 0.236,-0.133 0.255,-0.121C0.273,-0.109 0.295,-0.103 0.32,-0.103C0.338,-0.103 0.352,-0.106 0.362,-0.112C0.371,-0.117 0.378,-0.126 0.382,-0.139C0.383,-0.142 0.384,-0.147 0.384,-0.154C0.384,-0.17 0.376,-0.185 0.361,-0.198C0.346,-0.211 0.322,-0.227 0.29,-0.246C0.256,-0.267 0.228,-0.285 0.207,-0.302C0.186,-0.318 0.167,-0.338 0.152,-0.363C0.136,-0.388 0.128,-0.417 0.128,-0.45C0.128,-0.473 0.132,-0.496 0.139,-0.519C0.153,-0.565 0.182,-0.602 0.225,-0.63C0.268,-0.658 0.318,-0.672 0.374,-0.672Z" style="fill:white;fill-rule:nonzero;"/>
            </g>
            <g transform="matrix(12,0,0,12,273.327,441.913)">
                <path d="M0.444,-0.666C0.458,-0.666 0.469,-0.664 0.476,-0.66C0.484,-0.655 0.488,-0.649 0.488,-0.641C0.488,-0.638 0.487,-0.633 0.485,-0.628C0.483,-0.623 0.48,-0.619 0.476,-0.616C0.473,-0.612 0.469,-0.609 0.467,-0.608C0.464,-0.606 0.461,-0.604 0.46,-0.603C0.449,-0.597 0.441,-0.59 0.434,-0.583C0.427,-0.576 0.422,-0.564 0.417,-0.549L0.296,-0.118C0.293,-0.109 0.292,-0.101 0.292,-0.093C0.292,-0.085 0.293,-0.078 0.296,-0.073C0.298,-0.068 0.301,-0.062 0.306,-0.056C0.312,-0.047 0.315,-0.04 0.315,-0.035C0.315,-0.034 0.314,-0.03 0.313,-0.025C0.31,-0.016 0.304,-0.009 0.295,-0.006C0.286,-0.002 0.272,-0 0.253,-0L0.018,-0C0.004,-0 -0.007,-0.002 -0.014,-0.007C-0.022,-0.012 -0.026,-0.018 -0.026,-0.026C-0.026,-0.03 -0.025,-0.034 -0.023,-0.039C-0.02,-0.046 -0.016,-0.052 -0.01,-0.056C-0.004,-0.06 -0,-0.062 0.001,-0.063C0.012,-0.07 0.02,-0.077 0.027,-0.084C0.034,-0.091 0.039,-0.102 0.044,-0.118L0.166,-0.549C0.169,-0.558 0.17,-0.566 0.17,-0.574C0.17,-0.581 0.169,-0.588 0.167,-0.593C0.164,-0.598 0.161,-0.603 0.157,-0.61C0.151,-0.619 0.148,-0.626 0.148,-0.631C0.148,-0.633 0.149,-0.637 0.15,-0.642C0.153,-0.651 0.159,-0.657 0.168,-0.661C0.177,-0.664 0.19,-0.666 0.209,-0.666L0.444,-0.666Z" style="fill:white;fill-rule:nonzero;"/>
            </g>
            <g transform="matrix(12,0,0,12,278.175,441.913)">
                <path d="M0.296,0.006C0.251,0.006 0.211,-0.004 0.174,-0.024C0.138,-0.043 0.109,-0.072 0.088,-0.111C0.067,-0.149 0.056,-0.195 0.056,-0.248C0.056,-0.289 0.063,-0.334 0.077,-0.384C0.108,-0.491 0.156,-0.566 0.222,-0.61C0.287,-0.654 0.357,-0.676 0.432,-0.676C0.5,-0.676 0.561,-0.651 0.616,-0.602L0.646,-0.631C0.663,-0.645 0.677,-0.655 0.689,-0.66C0.701,-0.665 0.715,-0.668 0.731,-0.668C0.748,-0.668 0.762,-0.664 0.773,-0.656C0.784,-0.647 0.789,-0.636 0.789,-0.622C0.789,-0.617 0.788,-0.61 0.786,-0.603L0.75,-0.477C0.743,-0.456 0.736,-0.441 0.727,-0.432C0.718,-0.423 0.705,-0.419 0.69,-0.419C0.674,-0.419 0.66,-0.423 0.648,-0.431C0.635,-0.439 0.621,-0.453 0.605,-0.474C0.584,-0.502 0.565,-0.522 0.549,-0.534C0.532,-0.545 0.514,-0.551 0.495,-0.551C0.465,-0.551 0.437,-0.536 0.409,-0.505C0.383,-0.475 0.359,-0.425 0.339,-0.354C0.326,-0.308 0.32,-0.268 0.32,-0.235C0.32,-0.2 0.327,-0.173 0.341,-0.155C0.354,-0.136 0.373,-0.127 0.398,-0.127C0.419,-0.127 0.436,-0.132 0.448,-0.142C0.459,-0.152 0.468,-0.169 0.475,-0.194L0.482,-0.219C0.485,-0.232 0.487,-0.241 0.487,-0.246C0.487,-0.254 0.485,-0.26 0.482,-0.263C0.478,-0.266 0.472,-0.27 0.463,-0.274L0.428,-0.287C0.413,-0.293 0.405,-0.304 0.405,-0.32C0.405,-0.325 0.405,-0.328 0.406,-0.331C0.409,-0.34 0.413,-0.346 0.421,-0.35C0.428,-0.354 0.438,-0.356 0.453,-0.356L0.755,-0.355C0.777,-0.355 0.788,-0.348 0.788,-0.334C0.788,-0.331 0.787,-0.327 0.786,-0.322C0.783,-0.312 0.779,-0.304 0.773,-0.298C0.767,-0.292 0.758,-0.286 0.747,-0.28L0.721,-0.265C0.714,-0.261 0.709,-0.257 0.706,-0.254C0.703,-0.25 0.7,-0.245 0.699,-0.24L0.646,-0.055C0.639,-0.033 0.632,-0.018 0.624,-0.011C0.615,-0.004 0.605,-0 0.593,-0L0.551,-0C0.535,-0 0.522,-0.003 0.511,-0.01C0.501,-0.017 0.493,-0.03 0.486,-0.049L0.476,-0.078C0.428,-0.022 0.368,0.006 0.296,0.006Z" style="fill:white;fill-rule:nonzero;"/>
            </g>
            <g transform="matrix(12,0,0,12,287.139,441.913)">
                <path d="M0.779,-0.666C0.806,-0.666 0.82,-0.657 0.82,-0.64C0.82,-0.635 0.82,-0.632 0.819,-0.63C0.817,-0.623 0.814,-0.618 0.81,-0.615C0.806,-0.611 0.8,-0.607 0.793,-0.602C0.783,-0.596 0.775,-0.589 0.768,-0.582C0.761,-0.575 0.756,-0.563 0.751,-0.548L0.627,-0.104C0.616,-0.064 0.602,-0.036 0.585,-0.02C0.568,-0.004 0.544,0.004 0.514,0.004C0.487,0.004 0.465,-0.004 0.448,-0.02C0.43,-0.035 0.413,-0.059 0.398,-0.092L0.247,-0.41L0.163,-0.118C0.161,-0.109 0.16,-0.102 0.16,-0.095C0.16,-0.086 0.162,-0.079 0.165,-0.074C0.168,-0.068 0.172,-0.062 0.177,-0.056C0.184,-0.047 0.188,-0.04 0.188,-0.034C0.188,-0.03 0.188,-0.027 0.187,-0.025C0.184,-0.016 0.178,-0.009 0.169,-0.006C0.16,-0.002 0.146,-0 0.127,-0L0.018,-0C-0.009,-0 -0.023,-0.009 -0.023,-0.026C-0.023,-0.031 -0.023,-0.034 -0.022,-0.036C-0.02,-0.043 -0.017,-0.048 -0.013,-0.051C-0.009,-0.055 -0.003,-0.059 0.004,-0.064C0.014,-0.07 0.022,-0.077 0.029,-0.084C0.036,-0.091 0.041,-0.103 0.046,-0.118L0.173,-0.567L0.157,-0.6C0.15,-0.613 0.147,-0.625 0.147,-0.635C0.147,-0.656 0.16,-0.666 0.187,-0.666L0.335,-0.666C0.356,-0.666 0.373,-0.661 0.384,-0.652C0.395,-0.642 0.406,-0.625 0.419,-0.6L0.565,-0.307L0.634,-0.548C0.636,-0.557 0.637,-0.565 0.637,-0.571C0.637,-0.58 0.635,-0.587 0.632,-0.593C0.629,-0.598 0.625,-0.604 0.62,-0.61C0.613,-0.619 0.609,-0.626 0.609,-0.632C0.609,-0.636 0.609,-0.639 0.61,-0.641C0.613,-0.65 0.619,-0.657 0.628,-0.661C0.637,-0.664 0.651,-0.666 0.67,-0.666L0.779,-0.666Z" style="fill:white;fill-rule:nonzero;"/>
            </g>
            <g transform="matrix(12,0,0,12,296.223,441.913)">
                <path d="M0.653,-0.666C0.678,-0.666 0.697,-0.661 0.711,-0.65C0.724,-0.639 0.731,-0.625 0.731,-0.606C0.731,-0.597 0.73,-0.588 0.727,-0.579L0.701,-0.486C0.696,-0.468 0.69,-0.456 0.681,-0.449C0.672,-0.442 0.659,-0.438 0.642,-0.438C0.626,-0.438 0.614,-0.442 0.605,-0.449C0.596,-0.456 0.589,-0.467 0.584,-0.483L0.568,-0.54C0.565,-0.552 0.561,-0.56 0.556,-0.564C0.551,-0.568 0.542,-0.57 0.529,-0.57L0.424,-0.57L0.374,-0.392L0.418,-0.392C0.423,-0.392 0.429,-0.395 0.437,-0.402L0.471,-0.432C0.481,-0.441 0.49,-0.447 0.497,-0.451C0.504,-0.455 0.513,-0.457 0.524,-0.457C0.536,-0.457 0.546,-0.454 0.554,-0.448C0.561,-0.441 0.565,-0.433 0.565,-0.423C0.565,-0.42 0.564,-0.416 0.563,-0.411L0.522,-0.272C0.518,-0.257 0.511,-0.247 0.501,-0.239C0.492,-0.233 0.481,-0.229 0.47,-0.229C0.451,-0.229 0.437,-0.239 0.428,-0.258L0.411,-0.293C0.406,-0.303 0.399,-0.308 0.389,-0.308L0.35,-0.308L0.291,-0.096L0.379,-0.096C0.392,-0.096 0.403,-0.099 0.412,-0.103C0.422,-0.109 0.433,-0.117 0.444,-0.13L0.504,-0.196C0.515,-0.207 0.525,-0.216 0.535,-0.221C0.544,-0.226 0.556,-0.228 0.57,-0.228C0.585,-0.228 0.597,-0.225 0.606,-0.218C0.615,-0.211 0.62,-0.201 0.62,-0.188C0.62,-0.183 0.619,-0.176 0.617,-0.169L0.588,-0.068C0.581,-0.043 0.57,-0.025 0.556,-0.015C0.542,-0.005 0.522,-0 0.495,-0L0.018,-0C0.004,-0 -0.007,-0.002 -0.014,-0.007C-0.022,-0.012 -0.026,-0.018 -0.026,-0.026C-0.026,-0.03 -0.025,-0.034 -0.023,-0.039C-0.02,-0.046 -0.016,-0.052 -0.01,-0.056C-0.004,-0.06 -0,-0.062 0.001,-0.063C0.012,-0.07 0.02,-0.077 0.027,-0.084C0.034,-0.091 0.039,-0.102 0.044,-0.118L0.167,-0.549C0.17,-0.558 0.171,-0.566 0.171,-0.573C0.171,-0.581 0.17,-0.588 0.168,-0.593C0.165,-0.598 0.162,-0.604 0.157,-0.61C0.151,-0.619 0.148,-0.626 0.148,-0.631C0.148,-0.633 0.149,-0.637 0.15,-0.642C0.153,-0.651 0.159,-0.657 0.168,-0.661C0.177,-0.664 0.191,-0.666 0.209,-0.666L0.653,-0.666Z" style="fill:white;fill-rule:nonzero;"/>
            </g>
            <g transform="matrix(12,0,0,12,304.275,441.913)">
                <path d="M0.764,-0.463C0.753,-0.424 0.733,-0.394 0.704,-0.373C0.675,-0.351 0.638,-0.337 0.593,-0.332C0.625,-0.329 0.649,-0.32 0.665,-0.304C0.681,-0.288 0.689,-0.267 0.689,-0.241C0.689,-0.231 0.687,-0.219 0.684,-0.204L0.673,-0.155C0.672,-0.148 0.671,-0.144 0.671,-0.141C0.671,-0.132 0.673,-0.126 0.677,-0.122C0.681,-0.117 0.687,-0.115 0.694,-0.115C0.708,-0.115 0.718,-0.113 0.725,-0.109C0.731,-0.105 0.733,-0.098 0.731,-0.087C0.728,-0.072 0.72,-0.057 0.707,-0.042C0.694,-0.027 0.675,-0.015 0.651,-0.006C0.626,0.004 0.597,0.009 0.562,0.009C0.518,0.009 0.483,-0.001 0.457,-0.021C0.431,-0.04 0.418,-0.068 0.418,-0.105C0.418,-0.119 0.42,-0.134 0.424,-0.15L0.44,-0.214C0.443,-0.223 0.444,-0.232 0.444,-0.241C0.444,-0.256 0.439,-0.267 0.429,-0.274C0.418,-0.281 0.402,-0.284 0.379,-0.284L0.341,-0.284L0.295,-0.118C0.294,-0.114 0.293,-0.109 0.293,-0.103C0.293,-0.094 0.295,-0.086 0.3,-0.079C0.305,-0.072 0.311,-0.065 0.319,-0.058C0.325,-0.053 0.33,-0.049 0.333,-0.045C0.336,-0.04 0.338,-0.036 0.338,-0.031C0.338,-0.02 0.333,-0.012 0.322,-0.007C0.311,-0.002 0.296,-0 0.275,-0L0.024,-0C0.007,-0 -0.006,-0.003 -0.015,-0.01C-0.024,-0.016 -0.027,-0.025 -0.024,-0.036C-0.023,-0.042 -0.02,-0.047 -0.016,-0.051C-0.013,-0.054 -0.007,-0.058 0,-0.063C0.011,-0.07 0.02,-0.077 0.027,-0.084C0.034,-0.091 0.039,-0.103 0.043,-0.118L0.165,-0.549C0.168,-0.558 0.169,-0.566 0.169,-0.574C0.169,-0.581 0.168,-0.588 0.166,-0.593C0.163,-0.598 0.16,-0.603 0.156,-0.61C0.15,-0.619 0.147,-0.626 0.147,-0.631C0.147,-0.633 0.148,-0.637 0.149,-0.642C0.152,-0.651 0.158,-0.657 0.167,-0.661C0.175,-0.664 0.189,-0.666 0.208,-0.666L0.543,-0.666C0.589,-0.666 0.629,-0.659 0.664,-0.645C0.698,-0.631 0.724,-0.612 0.743,-0.588C0.761,-0.563 0.77,-0.536 0.77,-0.505C0.77,-0.491 0.768,-0.477 0.764,-0.463ZM0.508,-0.473C0.511,-0.488 0.513,-0.5 0.513,-0.508C0.513,-0.543 0.494,-0.561 0.455,-0.561L0.413,-0.561L0.369,-0.384L0.411,-0.384C0.437,-0.384 0.458,-0.39 0.472,-0.403C0.488,-0.416 0.499,-0.439 0.508,-0.473Z" style="fill:white;fill-rule:nonzero;"/>
            </g>
        </g>
    </g>
</svg>
