<?xml version="1.0" encoding="UTF-8" standalone="no"?>
<!DOCTYPE svg PUBLIC "-//W3C//DTD SVG 1.1//EN" "http://www.w3.org/Graphics/SVG/1.1/DTD/svg11.dtd">
<svg width="100%" height="100%" viewBox="0 0 172 125" version="1.1" xmlns="http://www.w3.org/2000/svg" xmlns:xlink="http://www.w3.org/1999/xlink" xml:space="preserve" xmlns:serif="http://www.serif.com/" style="fill-rule:evenodd;clip-rule:evenodd;stroke-linejoin:round;stroke-miterlimit:2;">
    <g transform="matrix(1,0,0,1,-592.338,-593.573)">
        <g transform="matrix(1.90047,0,0,1.90047,243.693,-152.591)">
            <g>
                <rect x="271.689" y="392.62" width="2" height="2" style="fill:rgb(149,40,86);"/>
                <rect x="260.66" y="392.62" width="2" height="2" style="fill:rgb(149,40,86);"/>
                <rect x="249.63" y="392.62" width="2" height="2" style="fill:rgb(149,40,86);"/>
                <rect x="238.6" y="392.62" width="2" height="2" style="fill:rgb(149,40,86);"/>
                <rect x="227.571" y="392.62" width="2" height="2" style="fill:rgb(149,40,86);"/>
                <rect x="216.541" y="392.62" width="2" height="2" style="fill:rgb(149,40,86);"/>
                <rect x="205.511" y="392.62" width="2" height="2" style="fill:rgb(149,40,86);"/>
                <rect x="194.482" y="392.62" width="2" height="2" style="fill:rgb(149,40,86);"/>
                <rect x="183.452" y="392.62" width="2" height="2" style="fill:rgb(149,40,86);"/>
            </g>
            <g>
                <rect x="271.689" y="403.189" width="2" height="2" style="fill:rgb(149,40,86);"/>
                <rect x="260.66" y="403.189" width="2" height="2" style="fill:rgb(149,40,86);"/>
                <rect x="249.63" y="403.189" width="2" height="2" style="fill:rgb(149,40,86);"/>
                <rect x="238.6" y="403.189" width="2" height="2" style="fill:rgb(149,40,86);"/>
                <rect x="227.571" y="403.189" width="2" height="2" style="fill:rgb(149,40,86);"/>
                <rect x="216.541" y="403.189" width="2" height="2" style="fill:rgb(149,40,86);"/>
                <rect x="205.511" y="403.189" width="2" height="2" style="fill:rgb(149,40,86);"/>
                <rect x="194.482" y="403.189" width="2" height="2" style="fill:rgb(149,40,86);"/>
                <rect x="183.452" y="403.189" width="2" height="2" style="fill:rgb(149,40,86);"/>
            </g>
            <g>
                <rect x="271.689" y="413.758" width="2" height="2" style="fill:rgb(149,40,86);"/>
                <rect x="260.66" y="413.758" width="2" height="2" style="fill:rgb(149,40,86);"/>
                <rect x="249.63" y="413.758" width="2" height="2" style="fill:rgb(149,40,86);"/>
                <rect x="238.6" y="413.758" width="2" height="2" style="fill:rgb(149,40,86);"/>
                <rect x="227.571" y="413.758" width="2" height="2" style="fill:rgb(149,40,86);"/>
                <rect x="216.541" y="413.758" width="2" height="2" style="fill:rgb(149,40,86);"/>
                <rect x="205.511" y="413.758" width="2" height="2" style="fill:rgb(149,40,86);"/>
                <rect x="194.482" y="413.758" width="2" height="2" style="fill:rgb(149,40,86);"/>
                <rect x="183.452" y="413.758" width="2" height="2" style="fill:rgb(149,40,86);"/>
            </g>
            <g>
                <rect x="271.689" y="424.327" width="2" height="2" style="fill:rgb(149,40,86);"/>
                <rect x="260.66" y="424.327" width="2" height="2" style="fill:rgb(149,40,86);"/>
                <rect x="249.63" y="424.327" width="2" height="2" style="fill:rgb(149,40,86);"/>
                <rect x="238.6" y="424.327" width="2" height="2" style="fill:rgb(149,40,86);"/>
                <rect x="227.571" y="424.327" width="2" height="2" style="fill:rgb(149,40,86);"/>
                <rect x="216.541" y="424.327" width="2" height="2" style="fill:rgb(149,40,86);"/>
                <rect x="205.511" y="424.327" width="2" height="2" style="fill:rgb(149,40,86);"/>
                <rect x="194.482" y="424.327" width="2" height="2" style="fill:rgb(149,40,86);"/>
                <rect x="183.452" y="424.327" width="2" height="2" style="fill:rgb(149,40,86);"/>
            </g>
            <g>
                <rect x="271.689" y="434.896" width="2" height="2" style="fill:rgb(149,40,86);"/>
                <rect x="260.66" y="434.896" width="2" height="2" style="fill:rgb(149,40,86);"/>
                <rect x="249.63" y="434.896" width="2" height="2" style="fill:rgb(149,40,86);"/>
                <rect x="238.6" y="434.896" width="2" height="2" style="fill:rgb(149,40,86);"/>
                <rect x="227.571" y="434.896" width="2" height="2" style="fill:rgb(149,40,86);"/>
                <rect x="216.541" y="434.896" width="2" height="2" style="fill:rgb(149,40,86);"/>
                <rect x="205.511" y="434.896" width="2" height="2" style="fill:rgb(149,40,86);"/>
                <rect x="194.482" y="434.896" width="2" height="2" style="fill:rgb(149,40,86);"/>
                <rect x="183.452" y="434.896" width="2" height="2" style="fill:rgb(149,40,86);"/>
            </g>
            <g>
                <rect x="271.689" y="445.466" width="2" height="2" style="fill:rgb(149,40,86);"/>
                <rect x="260.66" y="445.466" width="2" height="2" style="fill:rgb(149,40,86);"/>
                <rect x="249.63" y="445.466" width="2" height="2" style="fill:rgb(149,40,86);"/>
                <rect x="238.6" y="445.466" width="2" height="2" style="fill:rgb(149,40,86);"/>
                <rect x="227.571" y="445.466" width="2" height="2" style="fill:rgb(149,40,86);"/>
                <rect x="216.541" y="445.466" width="2" height="2" style="fill:rgb(149,40,86);"/>
                <rect x="205.511" y="445.466" width="2" height="2" style="fill:rgb(149,40,86);"/>
                <rect x="194.482" y="445.466" width="2" height="2" style="fill:rgb(149,40,86);"/>
                <rect x="183.452" y="445.466" width="2" height="2" style="fill:rgb(149,40,86);"/>
            </g>
            <g>
                <rect x="271.689" y="456.035" width="2" height="2" style="fill:rgb(149,40,86);"/>
                <rect x="260.66" y="456.035" width="2" height="2" style="fill:rgb(149,40,86);"/>
                <rect x="249.63" y="456.035" width="2" height="2" style="fill:rgb(149,40,86);"/>
                <rect x="238.6" y="456.035" width="2" height="2" style="fill:rgb(149,40,86);"/>
                <rect x="227.571" y="456.035" width="2" height="2" style="fill:rgb(149,40,86);"/>
                <rect x="216.541" y="456.035" width="2" height="2" style="fill:rgb(149,40,86);"/>
                <rect x="205.511" y="456.035" width="2" height="2" style="fill:rgb(149,40,86);"/>
                <rect x="194.482" y="456.035" width="2" height="2" style="fill:rgb(149,40,86);"/>
                <rect x="183.452" y="456.035" width="2" height="2" style="fill:rgb(149,40,86);"/>
            </g>
        </g>
    </g>
</svg>
