<?xml version="1.0" encoding="UTF-8" standalone="no"?>
<!DOCTYPE svg PUBLIC "-//W3C//DTD SVG 1.1//EN" "http://www.w3.org/Graphics/SVG/1.1/DTD/svg11.dtd">
<svg width="100%" height="100%" viewBox="0 0 41 217" version="1.1" xmlns="http://www.w3.org/2000/svg" xmlns:xlink="http://www.w3.org/1999/xlink" xml:space="preserve" xmlns:serif="http://www.serif.com/" style="fill-rule:evenodd;clip-rule:evenodd;stroke-linejoin:round;stroke-miterlimit:2;">
    <g transform="matrix(1,0,0,1,-271.88,-500.741)">
        <g transform="matrix(1.70792,5.55112e-17,-5.55112e-17,1.70792,219.672,475.5)">
            <path d="M54.568,19.438L49.909,14.779L42.568,22.121L35.226,14.779L30.568,19.438L37.91,26.78L30.568,34.122L35.226,38.78L42.568,31.438L49.909,38.78L54.568,34.122L47.226,26.78L54.568,19.438Z" style="fill:rgb(149,40,86);fill-rule:nonzero;"/>
            <path d="M54.568,53.71L49.909,49.052L42.568,56.394L35.226,49.052L30.568,53.71L37.91,61.052L30.568,68.394L35.226,73.053L42.568,65.711L49.909,73.053L54.568,68.394L47.226,61.052L54.568,53.71Z" style="fill:rgb(149,40,86);fill-rule:nonzero;"/>
            <path d="M54.568,87.983L49.909,83.325L42.568,90.666L35.226,83.325L30.568,87.983L37.91,95.325L30.568,102.667L35.226,107.325L42.568,99.983L49.909,107.325L54.568,102.667L47.226,95.325L54.568,87.983Z" style="fill:rgb(149,40,86);fill-rule:nonzero;"/>
            <path d="M54.568,122.256L49.909,117.597L42.568,124.939L35.226,117.597L30.568,122.256L37.91,129.598L30.568,136.939L35.226,141.598L42.568,134.256L49.909,141.598L54.568,136.939L47.226,129.598L54.568,122.256Z" style="fill:rgb(149,40,86);fill-rule:nonzero;"/>
        </g>
    </g>
</svg>
