<?xml version="1.0" encoding="UTF-8" standalone="no"?><!DOCTYPE svg PUBLIC "-//W3C//DTD SVG 1.1//EN" "http://www.w3.org/Graphics/SVG/1.1/DTD/svg11.dtd"><svg width="100%" height="100%" viewBox="0 0 2946 2946" version="1.1" xmlns="http://www.w3.org/2000/svg" xmlns:xlink="http://www.w3.org/1999/xlink" xml:space="preserve" xmlns:serif="http://www.serif.com/" style="fill-rule:evenodd;clip-rule:evenodd;stroke-linejoin:round;stroke-miterlimit:2;"><g><path d="M2945.83,144.38c0,-79.685 -64.694,-144.38 -144.38,-144.38l-2657.07,0c-79.685,0 -144.38,64.695 -144.38,144.38l-0,2657.07c-0,79.686 64.695,144.38 144.38,144.38l2657.07,0c79.686,0 144.38,-64.694 144.38,-144.38l0,-2657.07Z" style="fill:#14161a;"/><clipPath id="_clip1"><path d="M2945.83,144.38c0,-79.685 -64.694,-144.38 -144.38,-144.38l-2657.07,0c-79.685,0 -144.38,64.695 -144.38,144.38l-0,2657.07c-0,79.686 64.695,144.38 144.38,144.38l2657.07,0c79.686,0 144.38,-64.694 144.38,-144.38l0,-2657.07Z"/></clipPath><g clip-path="url(#_clip1)"><rect x="0" y="-29.167" width="2945.83" height="208.333" style="fill:#323233;"/><rect x="-95.833" y="179.167" width="783.333" height="2766.67" style="fill:#21252b;"/></g><g><path d="M1287.5,362.5c0,-25.296 -20.537,-45.833 -45.833,-45.833l-350,-0c-25.296,-0 -45.834,20.537 -45.834,45.833c0,25.296 20.538,45.833 45.834,45.833l350,0c25.296,0 45.833,-20.537 45.833,-45.833Z" style="fill:#6200ee;"/><path d="M2679.17,362.5c-0,-25.296 -20.538,-45.833 -45.834,-45.833l-208.333,-0c-25.296,-0 -45.833,20.537 -45.833,45.833c-0,25.296 20.537,45.833 45.833,45.833l208.333,0c25.296,0 45.834,-20.537 45.834,-45.833Z" style="fill:#6200ee;"/></g><g><path d="M1287.5,616.667c0,-25.296 -20.537,-45.834 -45.833,-45.834l-350,0c-25.296,0 -45.834,20.538 -45.834,45.834c0,25.296 20.538,45.833 45.834,45.833l350,0c25.296,0 45.833,-20.537 45.833,-45.833Z" style="fill:#6200ee;"/><path d="M2512.5,616.667c-0,-25.296 -20.537,-45.834 -45.833,-45.834l-137.5,0c-25.296,0 -45.834,20.538 -45.834,45.834c0,25.296 20.538,45.833 45.834,45.833l137.5,0c25.296,0 45.833,-20.537 45.833,-45.833Z" style="fill:#6200ee;"/></g><g><path d="M1091.67,895.833c-0,-25.296 -20.538,-45.833 -45.834,-45.833l-154.166,0c-25.296,0 -45.834,20.537 -45.834,45.833c0,25.296 20.538,45.834 45.834,45.834l154.166,-0c25.296,-0 45.834,-20.538 45.834,-45.834Z" style="fill:#6200ee;"/><path d="M1091.67,2716.67c-0,-25.296 -20.538,-45.834 -45.834,-45.834l-154.166,0c-25.296,0 -45.834,20.538 -45.834,45.834c0,25.296 20.538,45.833 45.834,45.833l154.166,0c25.296,0 45.834,-20.537 45.834,-45.833Z" style="fill:#6200ee;"/></g><g><path d="M1214.58,2527.08c0,-25.296 -20.537,-45.833 -45.833,-45.833l-154.167,0c-25.296,0 -45.833,20.537 -45.833,45.833c0,25.296 20.537,45.834 45.833,45.834l154.167,-0c25.296,-0 45.833,-20.538 45.833,-45.834Z" style="fill:#6200ee;"/><path d="M1214.58,1089.58c0,-25.296 -20.537,-45.833 -45.833,-45.833l-154.167,-0c-25.296,-0 -45.833,20.537 -45.833,45.833c0,25.296 20.537,45.834 45.833,45.834l154.167,-0c25.296,-0 45.833,-20.538 45.833,-45.834Z" style="fill:#6200ee;"/></g><g><path d="M1497.92,1302.08c-0,-25.296 -20.538,-45.833 -45.834,-45.833l-225,-0c-25.296,-0 -45.833,20.537 -45.833,45.833c-0,25.296 20.537,45.834 45.833,45.834l225,-0c25.296,-0 45.834,-20.538 45.834,-45.834Z" style="fill:#6200ee;"/><path d="M1497.92,1635.42c-0,-25.296 -20.538,-45.834 -45.834,-45.834l-225,0c-25.296,0 -45.833,20.538 -45.833,45.834c-0,25.296 20.537,45.833 45.833,45.833l225,-0c25.296,-0 45.834,-20.537 45.834,-45.833Z" style="fill:#6200ee;"/><path d="M2002.08,1472.92c0,-25.296 -20.537,-45.834 -45.833,-45.834l-625,0c-25.296,0 -45.833,20.538 -45.833,45.834c-0,25.296 20.537,45.833 45.833,45.833l625,0c25.296,0 45.833,-20.537 45.833,-45.833Z" style="fill:#6200ee;"/><path d="M2562.5,1302.08c0,-25.296 -20.537,-45.833 -45.833,-45.833l-562.5,-0c-25.296,-0 -45.834,20.537 -45.834,45.833c0,25.296 20.538,45.834 45.834,45.834l562.5,-0c25.296,-0 45.833,-20.538 45.833,-45.834Z" style="fill:#6200ee;"/></g><g><path d="M1497.92,1902.08c-0,-25.296 -20.538,-45.833 -45.834,-45.833l-225,-0c-25.296,-0 -45.833,20.537 -45.833,45.833c-0,25.296 20.537,45.834 45.833,45.834l225,-0c25.296,-0 45.834,-20.538 45.834,-45.834Z" style="fill:#6200ee;"/><path d="M1497.92,2372.92c-0,-25.296 -20.538,-45.834 -45.834,-45.834l-225,0c-25.296,0 -45.833,20.538 -45.833,45.834c-0,25.296 20.537,45.833 45.833,45.833l225,0c25.296,0 45.834,-20.537 45.834,-45.833Z" style="fill:#6200ee;"/><path d="M2683.33,2072.92c0,-25.296 -20.537,-45.834 -45.833,-45.834l-1306.25,0c-25.296,0 -45.833,20.538 -45.833,45.834c-0,25.296 20.537,45.833 45.833,45.833l1306.25,0c25.296,0 45.833,-20.537 45.833,-45.833Z" style="fill:#6200ee;"/><path d="M1689.58,2235.42c0,-25.296 -20.537,-45.834 -45.833,-45.834l-312.5,0c-25.296,0 -45.833,20.538 -45.833,45.834c-0,25.296 20.537,45.833 45.833,45.833l312.5,0c25.296,0 45.833,-20.537 45.833,-45.833Z" style="fill:#6200ee;"/><path d="M2104.17,1902.08c-0,-25.296 -20.538,-45.833 -45.834,-45.833l-104.166,-0c-25.296,-0 -45.834,20.537 -45.834,45.833c0,25.296 20.538,45.834 45.834,45.834l104.166,-0c25.296,-0 45.834,-20.538 45.834,-45.834Z" style="fill:#6200ee;"/></g><path d="M1916.67,616.667c-0,-25.296 -20.538,-45.834 -45.834,-45.834l-137.5,0c-25.296,0 -45.833,20.538 -45.833,45.834c-0,25.296 20.537,45.833 45.833,45.833l137.5,0c25.296,0 45.834,-20.537 45.834,-45.833Z" style="fill:#6200ee;"/><path d="M2275,362.5c-0,-25.296 -20.537,-45.833 -45.833,-45.833l-783.334,-0c-25.296,-0 -45.833,20.537 -45.833,45.833c-0,25.296 20.537,45.833 45.833,45.833l783.334,0c25.296,0 45.833,-20.537 45.833,-45.833Z" style="fill:#6200ee;"/><path d="M1616.67,616.667c-0,-25.296 -20.538,-45.834 -45.834,-45.834l-125,0c-25.296,0 -45.833,20.538 -45.833,45.834c-0,25.296 20.537,45.833 45.833,45.833l125,0c25.296,0 45.834,-20.537 45.834,-45.833Z" style="fill:#6200ee;"/><path d="M1858.33,1302.08c0,-25.296 -20.537,-45.833 -45.833,-45.833l-204.167,-0c-25.296,-0 -45.833,20.537 -45.833,45.833c-0,25.296 20.537,45.834 45.833,45.834l204.167,-0c25.296,-0 45.833,-20.538 45.833,-45.834Z" style="fill:#6200ee;"/><path d="M1858.33,1902.08c0,-25.296 -20.537,-45.833 -45.833,-45.833l-204.167,-0c-25.296,-0 -45.833,20.537 -45.833,45.833c-0,25.296 20.537,45.834 45.833,45.834l204.167,-0c25.296,-0 45.833,-20.538 45.833,-45.834Z" style="fill:#6200ee;"/><path d="M2500,1902.08c0,-25.296 -20.537,-45.833 -45.833,-45.833l-233.334,-0c-25.296,-0 -45.833,20.537 -45.833,45.833c0,25.296 20.537,45.834 45.833,45.834l233.334,-0c25.296,-0 45.833,-20.538 45.833,-45.834Z" style="fill:#6200ee;"/><path d="M2212.5,616.667c-0,-25.296 -20.537,-45.834 -45.833,-45.834l-125,0c-25.296,0 -45.834,20.538 -45.834,45.834c0,25.296 20.538,45.833 45.834,45.833l125,0c25.296,0 45.833,-20.537 45.833,-45.833Z" style="fill:#6200ee;"/><path d="M616.667,337.5c-0,-11.498 -9.335,-20.833 -20.834,-20.833l-279.166,-0c-11.499,-0 -20.834,9.335 -20.834,20.833c0,11.498 9.335,20.833 20.834,20.833l279.166,0c11.499,0 20.834,-9.335 20.834,-20.833Z" style="fill:#6200ee;"/><path d="M525,412.5c-0,-11.498 -9.335,-20.833 -20.833,-20.833l-187.5,-0c-11.499,-0 -20.834,9.335 -20.834,20.833c0,11.498 9.335,20.833 20.834,20.833l187.5,0c11.498,0 20.833,-9.335 20.833,-20.833Z" style="fill:#6200ee;"/><path d="M566.667,483.333c-0,-11.498 -9.335,-20.833 -20.834,-20.833l-229.166,0c-11.499,0 -20.834,9.335 -20.834,20.833c0,11.499 9.335,20.834 20.834,20.834l229.166,-0c11.499,-0 20.834,-9.335 20.834,-20.834Z" style="fill:#6200ee;"/><path d="M410.417,554.167c-0,-11.499 -9.335,-20.834 -20.834,-20.834l-72.916,0c-11.499,0 -20.834,9.335 -20.834,20.834c0,11.498 9.335,20.833 20.834,20.833l72.916,0c11.499,0 20.834,-9.335 20.834,-20.833Z" style="fill:#6200ee;"/><path d="M616.667,620.833c-0,-11.498 -9.335,-20.833 -20.834,-20.833l-279.166,0c-11.499,0 -20.834,9.335 -20.834,20.833c0,11.499 9.335,20.834 20.834,20.834l279.166,-0c11.499,-0 20.834,-9.335 20.834,-20.834Z" style="fill:#6200ee;"/></g></svg>