<?xml version="1.0" encoding="UTF-8" standalone="no"?><!DOCTYPE svg PUBLIC "-//W3C//DTD SVG 1.1//EN" "http://www.w3.org/Graphics/SVG/1.1/DTD/svg11.dtd"><svg width="100%" height="100%" viewBox="0 0 2946 2946" version="1.1" xmlns="http://www.w3.org/2000/svg" xmlns:xlink="http://www.w3.org/1999/xlink" xml:space="preserve" xmlns:serif="http://www.serif.com/" style="fill-rule:evenodd;clip-rule:evenodd;stroke-linejoin:round;stroke-miterlimit:2;"><path d="M2945.83,128.74c0,-62.642 -50.857,-113.499 -113.499,-113.499l-2743.84,0c-62.642,0 -113.499,50.857 -113.499,113.499l-0,2688.35c-0,62.642 50.857,113.499 113.499,113.499l2743.84,0c62.642,0 113.499,-50.857 113.499,-113.499l0,-2688.35Z" style="fill:#16181a;"/><clipPath id="_clip1"><path d="M2945.83,128.74c0,-62.642 -50.857,-113.499 -113.499,-113.499l-2743.84,0c-62.642,0 -113.499,50.857 -113.499,113.499l-0,2688.35c-0,62.642 50.857,113.499 113.499,113.499l2743.84,0c62.642,0 113.499,-50.857 113.499,-113.499l0,-2688.35Z"/></clipPath><g clip-path="url(#_clip1)"><g><path d="M1375.93,1793.2c0,-96.041 -77.973,-174.013 -174.013,-174.013l-799.452,-0c-96.04,-0 -174.013,77.972 -174.013,174.013l-0,348.026c-0,96.041 77.973,174.013 174.013,174.013l799.452,0c96.04,0 174.013,-77.972 174.013,-174.013l0,-348.026Z" style="fill:#dcdcdc;fill-opacity:0.08;"/><clipPath id="_clip2"><path d="M1375.93,1793.2c0,-96.041 -77.973,-174.013 -174.013,-174.013l-799.452,-0c-96.04,-0 -174.013,77.972 -174.013,174.013l-0,348.026c-0,96.041 77.973,174.013 174.013,174.013l799.452,0c96.04,0 174.013,-77.972 174.013,-174.013l0,-348.026Z"/></clipPath><g clip-path="url(#_clip2)"><g><g><path d="M915.68,1750.33c-0,-15.311 -12.431,-27.741 -27.741,-27.741l-519.518,-0c-15.311,-0 -27.741,12.43 -27.741,27.741c-0,15.311 12.43,27.741 27.741,27.741l519.518,0c15.31,0 27.741,-12.43 27.741,-27.741Z" style="fill:#6200ee;"/><path d="M1263.71,1750.33c0,-15.311 -12.43,-27.741 -27.741,-27.741l-206.798,-0c-15.311,-0 -27.742,12.43 -27.742,27.741c0,15.311 12.431,27.741 27.742,27.741l206.798,0c15.311,0 27.741,-12.43 27.741,-27.741Z" style="fill:#6200ee;"/></g><g><path d="M648.355,1896.6c0,-15.311 -12.43,-27.741 -27.741,-27.741l-252.193,-0c-15.311,-0 -27.741,12.43 -27.741,27.741c-0,15.311 12.43,27.741 27.741,27.741l252.193,0c15.311,0 27.741,-12.43 27.741,-27.741Z" style="fill:#6200ee;"/><path d="M1132.57,1896.6c-0,-15.311 -12.431,-27.741 -27.741,-27.741l-383.334,-0c-15.311,-0 -27.741,12.43 -27.741,27.741c0,15.311 12.43,27.741 27.741,27.741l383.334,0c15.31,0 27.741,-12.43 27.741,-27.741Z" style="fill:#6200ee;"/><path d="M1263.71,1896.6c0,-15.311 -12.43,-27.741 -27.741,-27.741l-31.09,-0c-15.311,-0 -27.741,12.43 -27.741,27.741c-0,15.311 12.43,27.741 27.741,27.741l31.09,0c15.311,0 27.741,-12.43 27.741,-27.741Z" style="fill:#6200ee;"/></g><g><path d="M507.127,2047.92c0,-15.311 -12.43,-27.742 -27.741,-27.742l-110.965,0c-15.311,0 -27.741,12.431 -27.741,27.742c-0,15.31 12.43,27.741 27.741,27.741l110.965,-0c15.311,-0 27.741,-12.431 27.741,-27.741Z" style="fill:#6200ee;"/><path d="M1263.71,2047.92c0,-15.311 -12.43,-27.742 -27.741,-27.742l-655.702,0c-15.311,0 -27.741,12.431 -27.741,27.742c-0,15.31 12.43,27.741 27.741,27.741l655.702,-0c15.311,-0 27.741,-12.431 27.741,-27.741Z" style="fill:#6200ee;"/></g><g><path d="M865.241,2184.1c0,-15.311 -12.43,-27.741 -27.741,-27.741l-469.079,-0c-15.311,-0 -27.741,12.43 -27.741,27.741c-0,15.311 12.43,27.741 27.741,27.741l469.079,0c15.311,0 27.741,-12.43 27.741,-27.741Z" style="fill:#6200ee;"/><path d="M1263.71,2184.1c0,-15.311 -12.43,-27.741 -27.741,-27.741l-282.456,-0c-15.311,-0 -27.741,12.43 -27.741,27.741c-0,15.311 12.43,27.741 27.741,27.741l282.456,0c15.311,0 27.741,-12.43 27.741,-27.741Z" style="fill:#6200ee;"/></g></g></g><path d="M2692.38,1793.2c0,-96.041 -77.972,-174.013 -174.013,-174.013l-799.452,-0c-96.04,-0 -174.013,77.972 -174.013,174.013l0,348.026c0,96.041 77.973,174.013 174.013,174.013l799.452,0c96.041,0 174.013,-77.972 174.013,-174.013l0,-348.026Z" style="fill:#dcdcdc;fill-opacity:0.08;"/><clipPath id="_clip3"><path d="M2692.38,1793.2c0,-96.041 -77.972,-174.013 -174.013,-174.013l-799.452,-0c-96.04,-0 -174.013,77.972 -174.013,174.013l0,348.026c0,96.041 77.973,174.013 174.013,174.013l799.452,0c96.041,0 174.013,-77.972 174.013,-174.013l0,-348.026Z"/></clipPath><g clip-path="url(#_clip3)"><g><g><path d="M2005.15,2184.1c-0,15.311 12.43,27.741 27.741,27.741l519.517,0c15.311,0 27.742,-12.43 27.742,-27.741c-0,-15.311 -12.431,-27.741 -27.742,-27.741l-519.517,-0c-15.311,-0 -27.741,12.43 -27.741,27.741Z" style="fill:#6200ee;"/><path d="M1657.13,2184.1c0,15.311 12.431,27.741 27.741,27.741l206.799,0c15.31,0 27.741,-12.43 27.741,-27.741c-0,-15.311 -12.431,-27.741 -27.741,-27.741l-206.799,-0c-15.31,-0 -27.741,12.43 -27.741,27.741Z" style="fill:#6200ee;"/></g><g><path d="M2272.48,2037.83c0,15.311 12.43,27.741 27.741,27.741l252.193,0c15.311,0 27.742,-12.43 27.742,-27.741c-0,-15.311 -12.431,-27.741 -27.742,-27.741l-252.193,-0c-15.311,-0 -27.741,12.43 -27.741,27.741Z" style="fill:#6200ee;"/><path d="M1788.27,2037.83c-0,15.311 12.43,27.741 27.741,27.741l383.333,0c15.311,0 27.741,-12.43 27.741,-27.741c0,-15.311 -12.43,-27.741 -27.741,-27.741l-383.333,-0c-15.311,-0 -27.741,12.43 -27.741,27.741Z" style="fill:#6200ee;"/><path d="M1657.13,2037.83c0,15.311 12.431,27.741 27.741,27.741l31.09,0c15.311,0 27.742,-12.43 27.742,-27.741c-0,-15.311 -12.431,-27.741 -27.742,-27.741l-31.09,-0c-15.31,-0 -27.741,12.43 -27.741,27.741Z" style="fill:#6200ee;"/></g><g><path d="M2413.71,1886.51c0,15.311 12.431,27.741 27.741,27.741l110.965,0c15.311,0 27.742,-12.43 27.742,-27.741c-0,-15.311 -12.431,-27.741 -27.742,-27.741l-110.965,-0c-15.31,-0 -27.741,12.43 -27.741,27.741Z" style="fill:#6200ee;"/><path d="M1657.13,1886.51c0,15.311 12.431,27.741 27.741,27.741l655.702,0c15.311,0 27.741,-12.43 27.741,-27.741c0,-15.311 -12.43,-27.741 -27.741,-27.741l-655.702,-0c-15.31,-0 -27.741,12.43 -27.741,27.741Z" style="fill:#6200ee;"/></g><g><path d="M2055.59,1750.33c0,15.311 12.431,27.741 27.741,27.741l469.079,0c15.311,0 27.742,-12.43 27.742,-27.741c-0,-15.311 -12.431,-27.741 -27.742,-27.741l-469.079,-0c-15.31,-0 -27.741,12.43 -27.741,27.741Z" style="fill:#6200ee;"/><path d="M1657.13,1750.33c0,15.311 12.431,27.741 27.741,27.741l282.457,0c15.31,0 27.741,-12.43 27.741,-27.741c-0,-15.311 -12.431,-27.741 -27.741,-27.741l-282.457,-0c-15.31,-0 -27.741,12.43 -27.741,27.741Z" style="fill:#6200ee;"/></g></g></g></g><rect x="-25" y="201.864" width="2970.83" height="1119.74" style="fill:#12122b;"/><g><g><circle cx="963.039" cy="761.732" r="432.657" style="fill:#6200ee;fill-opacity:0.08;"/><circle cx="963.039" cy="761.732" r="378.289" style="fill:#6200ee;fill-opacity:0.25;"/><circle cx="963.039" cy="761.732" r="312.719" style="fill:#6200ee;"/><clipPath id="_clip4"><circle cx="963.039" cy="761.732" r="312.719"/></clipPath><g clip-path="url(#_clip4)"><ellipse cx="838.203" cy="596.546" rx="64.309" ry="62.039" style="fill:#733bee;"/><ellipse cx="1100.48" cy="658.585" rx="84.485" ry="81.502" style="fill:#733bee;"/><ellipse cx="865.945" cy="879.728" rx="84.485" ry="81.502" style="fill:#733bee;"/><ellipse cx="1061.39" cy="835.936" rx="39.09" ry="37.71" style="fill:#733bee;"/></g></g><g><g><path d="M1800.32,943.311c-0,-16.702 -13.561,-30.263 -30.264,-30.263l-257.236,0c-16.703,0 -30.264,13.561 -30.264,30.263c0,16.703 13.561,30.264 30.264,30.264l257.236,-0c16.703,-0 30.264,-13.561 30.264,-30.264Z" style="fill:#6200ee;"/><path d="M1991.99,943.311c0,-16.702 -13.56,-30.263 -30.263,-30.263l-85.746,0c-16.702,0 -30.263,13.561 -30.263,30.263c0,16.703 13.561,30.264 30.263,30.264l85.746,-0c16.703,-0 30.263,-13.561 30.263,-30.264Z" style="fill:#6200ee;"/></g><path d="M2390.45,784.43c0,-37.581 -30.511,-68.092 -68.092,-68.092l-771.71,-0c-37.582,-0 -68.093,30.511 -68.093,68.092c0,37.581 30.511,68.092 68.093,68.092l771.71,-0c37.581,-0 68.092,-30.511 68.092,-68.092Z" style="fill:#6200ee;"/></g></g><g><path d="M2945.83,61.897c0,-25.75 -20.905,-46.656 -46.655,-46.656l-2877.52,0c-25.75,0 -46.656,20.906 -46.656,46.656l0,93.311c0,25.75 20.906,46.656 46.656,46.656l2877.52,0c25.75,0 46.655,-20.906 46.655,-46.656l0,-93.311Z" style="fill:#16181a;"/><g><circle cx="117.95" cy="108.553" r="42.073" style="fill:#6200ee;"/><circle cx="259.671" cy="108.553" r="42.073" style="fill:#6200ee;"/><circle cx="396.962" cy="108.553" r="42.073" style="fill:#6200ee;"/></g><g><path d="M1349.45,108.553c-0,-16.007 -12.996,-29.003 -29.002,-29.003l-93.312,0c-16.007,0 -29.002,12.996 -29.002,29.003c-0,16.006 12.995,29.002 29.002,29.002l93.312,-0c16.006,-0 29.002,-12.996 29.002,-29.002Z" style="fill:#6200ee;"/><path d="M1722.7,108.553c0,-16.007 -12.995,-29.003 -29.002,-29.003l-269.846,0c-16.007,0 -29.003,12.996 -29.003,29.003c0,16.006 12.996,29.002 29.003,29.002l269.846,-0c16.007,-0 29.002,-12.996 29.002,-29.002Z" style="fill:#6200ee;"/></g></g></g></svg>